<?xml version="1.0" encoding="UTF-8" standalone="no"?>
<!-- Created with Inkscape (http://www.inkscape.org/) -->

<svg
   xmlns:dc="http://purl.org/dc/elements/1.1/"
   xmlns:cc="http://creativecommons.org/ns#"
   xmlns:rdf="http://www.w3.org/1999/02/22-rdf-syntax-ns#"
   xmlns:svg="http://www.w3.org/2000/svg"
   xmlns="http://www.w3.org/2000/svg"
   xmlns:sodipodi="http://sodipodi.sourceforge.net/DTD/sodipodi-0.dtd"
   xmlns:inkscape="http://www.inkscape.org/namespaces/inkscape"
   width="120.47356mm"
   height="38.827602mm"
   viewBox="0 0 120.47356 38.827602"
   version="1.1"
   id="svg8"
   inkscape:version="0.92.1 r15371"
   sodipodi:docname="рисунок для filecloud 2.svg">
  <defs
     id="defs2" />
  <sodipodi:namedview
     id="base"
     pagecolor="#ffffff"
     bordercolor="#666666"
     borderopacity="1.0"
     inkscape:pageopacity="0.0"
     inkscape:pageshadow="2"
     inkscape:zoom="2.8"
     inkscape:cx="-17.613688"
     inkscape:cy="37.217459"
     inkscape:document-units="mm"
     inkscape:current-layer="layer1"
     showgrid="false"
     showguides="false"
     inkscape:window-width="3840"
     inkscape:window-height="2066"
     inkscape:window-x="-11"
     inkscape:window-y="-11"
     inkscape:window-maximized="1" />
  <metadata
     id="metadata5">
    <rdf:RDF>
      <cc:Work
         rdf:about="">
        <dc:format>image/svg+xml</dc:format>
        <dc:type
           rdf:resource="http://purl.org/dc/dcmitype/StillImage" />
        <dc:title />
      </cc:Work>
    </rdf:RDF>
  </metadata>
  <g
     inkscape:label="Layer 1"
     inkscape:groupmode="layer"
     id="layer1"
     transform="translate(-51.458365,-44.181175)">
    <path
       style="fill:#cdeafe;fill-opacity:1;stroke:none;stroke-width:0.26458332px;stroke-linecap:butt;stroke-linejoin:miter;stroke-opacity:1"
       d="m 99.124253,65.962053 c 10.956837,-8.481732 20.340797,4.626799 19.985497,5.811382 3.48908,-0.556233 5.59409,0.484542 7.46503,1.795389 l 35.24627,0.09449 c 5.91998,-1.654394 5.77731,-5.373574 6.18936,-7.654017 0.49699,4.955731 -2.19594,9.307663 -6.2366,9.307663 h -46.39658 z"
       id="path4531"
       inkscape:connector-curvature="0"
       sodipodi:nodetypes="cccccscc" />
    <path
       style="fill:#ffffff;fill-opacity:1;stroke:#000000;stroke-width:0.26458332px;stroke-linecap:butt;stroke-linejoin:miter;stroke-opacity:1"
       d="m 100.02195,64.4029 c 2.14901,-4.175526 5.61005,-2.938879 8.69345,-3.260045 2.56728,-5.996758 5.41676,-3.417182 8.07924,-3.496278 1.95636,-6.333488 6.29362,-4.254469 10.01637,-4.346728 12.31752,-13.495499 20.71788,-1.032971 22.39509,3.212798 5.43474,-1.10273 7.03124,1.906939 9.07143,4.441222 13.39914,-0.892886 11.18482,10.982079 3.54352,12.709448 l -35.34077,0.14174 C 116.9264,74.206812 94.591819,74.612016 100.02195,64.4029 Z"
       id="path4529"
       inkscape:connector-curvature="0"
       sodipodi:nodetypes="ccccccccc" />
    <path
       sodipodi:nodetypes="ccccc"
       inkscape:connector-curvature="0"
       id="path4533"
       d="m 99.124253,65.962053 c 10.956837,-8.481732 20.340797,4.626799 19.985497,5.811382 3.48908,-0.556233 3.46797,0.626283 5.33891,1.93713 -4.02165,5.298124 -7.82829,0.199537 -9.07143,1.606395 z"
       style="fill:#cdeafe;fill-opacity:1;stroke:none;stroke-width:0.26458332px;stroke-linecap:butt;stroke-linejoin:miter;stroke-opacity:1" />
    <path
       style="fill:#ffffff;fill-opacity:1;stroke:#000000;stroke-width:0.26458332px;stroke-linecap:butt;stroke-linejoin:miter;stroke-opacity:1"
       d="m 53.105655,78.718748 c 1.035208,-9.868135 5.307693,-8.258654 8.976934,-8.787945 6.630047,-18.447609 27.091708,-19.417675 37.041666,-3.96875 7.162925,-1.991333 14.031635,-2.599872 18.709825,7.087052 6.93491,-1.358906 8.24121,2.010217 8.97693,5.858632 0,0 2.51316,3.169982 -1.32685,3.685267 L 54.6888,82.876487 c -4.08693,0 -3.596372,-3.128986 -1.583145,-4.157739 z"
       id="path4527"
       inkscape:connector-curvature="0"
       sodipodi:nodetypes="cccccccc" />
    <circle
       style="opacity:0.29600004;fill:#86c2ff;fill-opacity:1;stroke:none;stroke-width:0.26458332"
       id="path4541"
       cx="55.893234"
       cy="63.64695"
       r="2.9765625" />
    <circle
       style="opacity:0.29600004;fill:#86c2ff;fill-opacity:1;stroke:none;stroke-width:0.46617061"
       id="path4541-3"
       cx="166.6875"
       cy="49.425594"
       r="5.2444196" />
    <circle
       style="opacity:0.29600004;fill:#86c2ff;fill-opacity:1;stroke:none;stroke-width:0.15958993"
       id="path4541-7"
       cx="99.265999"
       cy="57.315845"
       r="1.7953869" />
    <circle
       style="opacity:0.29600004;fill:#86c2ff;fill-opacity:1;stroke:none;stroke-width:0.12179232"
       id="path4541-7-4"
       cx="73.469116"
       cy="52.307663"
       r="1.3701637" />
    <circle
       style="opacity:0.29600004;fill:#86c2ff;fill-opacity:1;stroke:none;stroke-width:0.20998675"
       id="path4541-7-5"
       cx="116.70015"
       cy="48.669643"
       r="2.3623512" />
    <g
       id="g4977"
       transform="matrix(0.01332879,0,0,0.01332879,71.737847,58.674587)">
      <path
         id="path4898"
         d="M 128,0 C 110.4,0 96,14.4 96,32 v 448 c 0,17.6 14.4,32 32,32 h 320 c 17.6,0 32,-14.4 32,-32 V 128 L 352,0 Z"
         style="fill:#e2e5e7"
         inkscape:connector-curvature="0" />
      <path
         id="path4900"
         d="m 384,128 h 96 L 352,0 v 96 c 0,17.6 14.4,32 32,32 z"
         style="fill:#b0b7bd"
         inkscape:connector-curvature="0" />
      <polygon
         id="polygon4902"
         points="480,128 480,224 384,128 "
         style="fill:#cad1d8" />
      <path
         id="path4904"
         d="m 416,416 c 0,8.8 -7.2,16 -16,16 H 48 c -8.8,0 -16,-7.2 -16,-16 V 256 c 0,-8.8 7.2,-16 16,-16 h 352 c 8.8,0 16,7.2 16,16 z"
         style="fill:#a066aa"
         inkscape:connector-curvature="0" />
      <g
         id="g4912">
        <path
           id="path4906"
           d="m 92.816,303.152 c 0,-4.224 3.312,-8.848 8.688,-8.848 h 29.568 c 16.624,0 31.6,11.136 31.6,32.496 0,20.224 -14.976,31.472 -31.6,31.472 H 109.68 v 16.896 c 0,5.648 -3.552,8.832 -8.176,8.832 -4.224,0 -8.688,-3.184 -8.688,-8.832 0,0 0,-72.016 0,-72.016 z m 16.864,7.28 v 31.856 h 21.376 c 8.56,0 15.344,-7.552 15.344,-15.488 0,-8.96 -6.784,-16.368 -15.344,-16.368 z"
           style="fill:#ffffff"
           inkscape:connector-curvature="0" />
        <path
           id="path4908"
           d="m 178.976,304.432 c 0,-4.624 1.024,-9.088 7.68,-9.088 4.592,0 5.632,1.152 9.072,4.464 l 42.336,52.976 v -49.632 c 0,-4.224 3.696,-8.848 8.064,-8.848 4.608,0 9.072,4.624 9.072,8.848 v 72.016 c 0,5.648 -3.456,7.792 -6.784,8.832 -4.464,0 -6.656,-1.024 -10.352,-4.464 l -42.336,-53.744 v 49.392 c 0,5.648 -3.456,8.832 -8.064,8.832 -4.608,0 -8.704,-3.184 -8.704,-8.832 v -70.752 z"
           style="fill:#ffffff"
           inkscape:connector-curvature="0" />
        <path
           id="path4910"
           d="m 351.44,374.16 c -9.088,7.536 -20.224,10.752 -31.472,10.752 -26.88,0 -45.936,-15.36 -45.936,-45.808 0,-25.84 20.096,-45.92 47.072,-45.92 10.112,0 21.232,3.456 29.168,11.264 7.808,7.664 -3.456,19.056 -11.12,12.288 -4.736,-4.624 -11.392,-8.064 -18.048,-8.064 -15.472,0 -30.432,12.4 -30.432,30.432 0,18.944 12.528,30.448 29.296,30.448 7.792,0 14.448,-2.304 19.184,-5.76 V 348.08 h -19.184 c -11.392,0 -10.24,-15.632 0,-15.632 h 25.584 c 4.736,0 9.072,3.6 9.072,7.568 v 27.248 c 0,2.288 -1.008,4.448 -3.184,6.896 z"
           style="fill:#ffffff"
           inkscape:connector-curvature="0" />
      </g>
      <path
         id="path4914"
         d="M 400,432 H 96 v 16 h 304 c 8.8,0 16,-7.2 16,-16 v -16 c 0,8.8 -7.2,16 -16,16 z"
         style="fill:#cad1d8"
         inkscape:connector-curvature="0" />
      <g
         id="g4916" />
      <g
         id="g4918" />
      <g
         id="g4920" />
      <g
         id="g4922" />
      <g
         id="g4924" />
      <g
         id="g4926" />
      <g
         id="g4928" />
      <g
         id="g4930" />
      <g
         id="g4932" />
      <g
         id="g4934" />
      <g
         id="g4936" />
      <g
         id="g4938" />
      <g
         id="g4940" />
      <g
         id="g4942" />
      <g
         id="g4944" />
    </g>
    <g
       id="g5058"
       transform="matrix(0.01332879,0,0,0.01332879,129.59418,63.633032)">
      <path
         id="path4979"
         d="M 128,0 C 110.4,0 96,14.4 96,32 v 448 c 0,17.6 14.4,32 32,32 h 320 c 17.6,0 32,-14.4 32,-32 V 128 L 352,0 Z"
         style="fill:#e2e5e7"
         inkscape:connector-curvature="0" />
      <path
         id="path4981"
         d="m 384,128 h 96 L 352,0 v 96 c 0,17.6 14.4,32 32,32 z"
         style="fill:#b0b7bd"
         inkscape:connector-curvature="0" />
      <polygon
         id="polygon4983"
         points="480,128 480,224 384,128 "
         style="fill:#cad1d8" />
      <path
         id="path4985"
         d="m 416,416 c 0,8.8 -7.2,16 -16,16 H 48 c -8.8,0 -16,-7.2 -16,-16 V 256 c 0,-8.8 7.2,-16 16,-16 h 352 c 8.8,0 16,7.2 16,16 z"
         style="fill:#50bee8"
         inkscape:connector-curvature="0" />
      <g
         id="g4993">
        <path
           id="path4987"
           d="m 92.576,384 c -4.224,0 -8.832,-2.32 -8.832,-7.936 v -72.656 c 0,-4.608 4.608,-7.936 8.832,-7.936 h 29.296 c 58.464,0 57.168,88.528 1.136,88.528 z m 8.064,-72.928 v 57.312 h 21.232 c 34.544,0 36.064,-57.312 0,-57.312 z"
           style="fill:#ffffff"
           inkscape:connector-curvature="0" />
        <path
           id="path4989"
           d="m 228,385.28 c -23.664,1.024 -48.24,-14.72 -48.24,-46.064 0,-31.472 24.56,-46.944 48.24,-46.944 22.384,1.136 45.792,16.624 45.792,46.944 0,30.336 -23.408,46.064 -45.792,46.064 z m -1.408,-76.368 c -14.336,0 -29.936,10.112 -29.936,30.32 0,20.096 15.616,30.336 29.936,30.336 14.72,0 30.448,-10.24 30.448,-30.336 0,-20.224 -15.728,-30.32 -30.448,-30.32 z"
           style="fill:#ffffff"
           inkscape:connector-curvature="0" />
        <path
           id="path4991"
           d="m 288.848,339.088 c 0,-24.688 15.488,-45.92 44.912,-45.92 11.136,0 19.968,3.328 29.296,11.392 3.456,3.184 3.84,8.816 0.384,12.4 -3.456,3.056 -8.704,2.688 -11.776,-0.384 -5.232,-5.504 -10.608,-7.024 -17.904,-7.024 -19.696,0 -29.152,13.952 -29.152,29.552 0,15.872 9.328,30.448 29.152,30.448 7.296,0 14.08,-2.96 19.968,-8.192 3.952,-3.072 9.456,-1.552 11.76,1.536 2.048,2.816 3.056,7.552 -1.408,12.016 -8.96,8.336 -19.696,10 -30.336,10 -30.944,0 -44.896,-21.136 -44.896,-45.824 z"
           style="fill:#ffffff"
           inkscape:connector-curvature="0" />
      </g>
      <path
         id="path4995"
         d="M 400,432 H 96 v 16 h 304 c 8.8,0 16,-7.2 16,-16 v -16 c 0,8.8 -7.2,16 -16,16 z"
         style="fill:#cad1d8"
         inkscape:connector-curvature="0" />
      <g
         id="g4997" />
      <g
         id="g4999" />
      <g
         id="g5001" />
      <g
         id="g5003" />
      <g
         id="g5005" />
      <g
         id="g5007" />
      <g
         id="g5009" />
      <g
         id="g5011" />
      <g
         id="g5013" />
      <g
         id="g5015" />
      <g
         id="g5017" />
      <g
         id="g5019" />
      <g
         id="g5021" />
      <g
         id="g5023" />
      <g
         id="g5025" />
    </g>
    <g
       id="g5139"
       transform="matrix(0.01332879,0,0,0.01332879,110.25897,73.610875)">
      <path
         id="path5060"
         d="M 128,0 C 110.4,0 96,14.4 96,32 v 448 c 0,17.616 14.4,32 32,32 h 320 c 17.6,0 32,-14.384 32,-32 V 128 L 352,0 Z"
         style="fill:#e2e5e7"
         inkscape:connector-curvature="0" />
      <path
         id="path5062"
         d="m 384,128 h 96 L 352,0 v 96 c 0,17.6 14.4,32 32,32 z"
         style="fill:#b0b7bd"
         inkscape:connector-curvature="0" />
      <polygon
         id="polygon5064"
         points="384,128 480,128 480,224 "
         style="fill:#cad1d8" />
      <path
         id="path5066"
         d="m 416,416 c 0,8.8 -7.2,16 -16,16 H 48 c -8.8,0 -16,-7.2 -16,-16 V 256 c 0,-8.8 7.2,-16 16,-16 h 352 c 8.8,0 16,7.2 16,16 z"
         style="fill:#50bee8"
         inkscape:connector-curvature="0" />
      <g
         id="g5074">
        <path
           id="path5068"
           d="m 117.184,327.84 v 47.344 c 0,5.632 -4.592,8.832 -9.216,8.832 -4.096,0 -7.664,-3.2 -7.664,-8.832 v -72.032 c 0,-6.64 5.632,-8.832 7.664,-8.832 3.712,0 5.888,2.192 8.064,4.608 l 28.16,38 29.152,-39.408 c 4.24,-5.248 14.592,-3.2 14.592,5.632 v 72.032 c 0,5.632 -3.6,8.832 -7.68,8.832 -4.592,0 -8.192,-3.2 -8.192,-8.832 V 327.84 l -21.232,26.88 c -4.592,5.632 -10.352,5.632 -14.576,0 z"
           style="fill:#ffffff"
           inkscape:connector-curvature="0" />
        <path
           id="path5070"
           d="m 210.288,303.152 c 0,-4.224 3.328,-8.832 8.704,-8.832 h 29.552 c 16.64,0 31.616,11.136 31.616,32.496 0,20.224 -14.976,31.472 -31.616,31.472 h -21.36 v 16.896 c 0,5.632 -3.584,8.832 -8.192,8.832 -4.224,0 -8.704,-3.2 -8.704,-8.832 z m 16.88,7.296 v 31.856 h 21.36 c 8.576,0 15.36,-7.552 15.36,-15.488 0,-8.96 -6.784,-16.368 -15.36,-16.368 z"
           style="fill:#ffffff"
           inkscape:connector-curvature="0" />
        <path
           id="path5072"
           d="m 322.064,311.472 h -21.872 c -10.736,0 -10.096,-15.984 0,-15.984 h 39.152 c 7.792,0 11.376,8.96 5.632,14.72 l -21.232,19.824 c 15.616,-1.152 27.888,10.48 27.888,24.816 0,15.728 -11.136,29.168 -34.544,29.168 -10.24,0 -20.336,-4.224 -26.224,-13.44 -6.144,-9.072 7.024,-17.776 13.936,-8.832 3.328,4.352 8.704,6.528 14.448,6.528 7.808,0 15.488,-3.328 15.488,-13.44 0,-13.296 -16.256,-11.248 -25.072,-10.352 -10.752,2.048 -13.936,-9.6 -7.664,-14.448 z"
           style="fill:#ffffff"
           inkscape:connector-curvature="0" />
      </g>
      <path
         id="path5076"
         d="M 400,432 H 96 v 16 h 304 c 8.8,0 16,-7.2 16,-16 v -16 c 0,8.8 -7.2,16 -16,16 z"
         style="fill:#cad1d8"
         inkscape:connector-curvature="0" />
      <g
         id="g5078" />
      <g
         id="g5080" />
      <g
         id="g5082" />
      <g
         id="g5084" />
      <g
         id="g5086" />
      <g
         id="g5088" />
      <g
         id="g5090" />
      <g
         id="g5092" />
      <g
         id="g5094" />
      <g
         id="g5096" />
      <g
         id="g5098" />
      <g
         id="g5100" />
      <g
         id="g5102" />
      <g
         id="g5104" />
      <g
         id="g5106" />
    </g>
    <g
       id="g5220"
       transform="matrix(0.01332879,0,0,0.01332879,122.81514,55.340219)">
      <path
         id="path5141"
         d="M 128,0 C 110.4,0 96,14.4 96,32 v 448 c 0,17.6 14.4,32 32,32 h 320 c 17.6,0 32,-14.4 32,-32 V 128 L 352,0 Z"
         style="fill:#e2e5e7"
         inkscape:connector-curvature="0" />
      <path
         id="path5143"
         d="m 384,128 h 96 L 352,0 v 96 c 0,17.6 14.4,32 32,32 z"
         style="fill:#b0b7bd"
         inkscape:connector-curvature="0" />
      <polygon
         id="polygon5145"
         points="480,128 480,224 384,128 "
         style="fill:#cad1d8" />
      <path
         id="path5147"
         d="m 416,416 c 0,8.8 -7.2,16 -16,16 H 48 c -8.8,0 -16,-7.2 -16,-16 V 256 c 0,-8.8 7.2,-16 16,-16 h 352 c 8.8,0 16,7.2 16,16 z"
         style="fill:#f7b84e"
         inkscape:connector-curvature="0" />
      <g
         id="g5155">
        <path
           id="path5149"
           d="m 96.816,314.656 c 2.944,-24.816 40.416,-29.28 58.08,-15.712 8.704,7.024 -0.512,18.16 -8.192,12.528 -9.472,-6.016 -30.96,-8.832 -33.648,4.464 -3.456,20.992 52.192,8.976 51.312,42.992 -0.896,32.496 -47.984,33.264 -65.648,18.672 -4.224,-3.44 -4.096,-9.056 -1.792,-12.528 3.328,-3.312 7.04,-4.464 11.392,-0.896 10.48,7.168 37.488,12.544 39.392,-5.648 -1.648,-18.912 -54.864,-7.52 -50.896,-43.872 z"
           style="fill:#ffffff"
           inkscape:connector-curvature="0" />
        <path
           id="path5151"
           d="m 209.12,378.256 -33.776,-70.752 c -4.992,-10.112 10.112,-18.416 15.728,-7.808 l 11.392,25.712 14.704,33.776 14.448,-33.776 11.392,-25.712 c 5.12,-9.712 19.952,-3.584 15.616,7.04 L 226,378.256 c -2.944,8.064 -12.016,9.968 -16.88,0 z"
           style="fill:#ffffff"
           inkscape:connector-curvature="0" />
        <path
           id="path5153"
           d="m 345.76,374.16 c -9.088,7.536 -20.224,10.752 -31.472,10.752 -26.88,0 -45.936,-15.36 -45.936,-45.808 0,-25.84 20.096,-45.92 47.072,-45.92 10.112,0 21.232,3.456 29.168,11.264 7.792,7.664 -3.456,19.056 -11.12,12.288 -4.736,-4.624 -11.392,-8.064 -18.048,-8.064 -15.472,0 -30.432,12.4 -30.432,30.432 0,18.944 12.528,30.448 29.296,30.448 7.792,0 14.448,-2.304 19.184,-5.76 V 348.08 h -19.184 c -11.392,0 -10.24,-15.632 0,-15.632 h 25.584 c 4.736,0 9.072,3.6 9.072,7.568 v 27.248 c 0.016,2.288 -1.008,4.448 -3.184,6.896 z"
           style="fill:#ffffff"
           inkscape:connector-curvature="0" />
      </g>
      <path
         id="path5157"
         d="M 400,432 H 96 v 16 h 304 c 8.8,0 16,-7.2 16,-16 v -16 c 0,8.8 -7.2,16 -16,16 z"
         style="fill:#cad1d8"
         inkscape:connector-curvature="0" />
      <g
         id="g5159" />
      <g
         id="g5161" />
      <g
         id="g5163" />
      <g
         id="g5165" />
      <g
         id="g5167" />
      <g
         id="g5169" />
      <g
         id="g5171" />
      <g
         id="g5173" />
      <g
         id="g5175" />
      <g
         id="g5177" />
      <g
         id="g5179" />
      <g
         id="g5181" />
      <g
         id="g5183" />
      <g
         id="g5185" />
      <g
         id="g5187" />
    </g>
    <g
       id="g5301"
       transform="matrix(0.01332879,0,0,0.01332879,77.734648,72.51485)">
      <path
         id="path5222"
         d="M 128,0 C 110.4,0 96,14.4 96,32 v 448 c 0,17.6 14.4,32 32,32 h 320 c 17.6,0 32,-14.4 32,-32 V 128 L 352,0 Z"
         style="fill:#e2e5e7"
         inkscape:connector-curvature="0" />
      <path
         id="path5224"
         d="m 384,128 h 96 L 352,0 v 96 c 0,17.6 14.4,32 32,32 z"
         style="fill:#b0b7bd"
         inkscape:connector-curvature="0" />
      <polygon
         id="polygon5226"
         points="384,128 480,128 480,224 "
         style="fill:#cad1d8" />
      <path
         id="path5228"
         d="m 416,416 c 0,8.8 -7.2,16 -16,16 H 48 c -8.8,0 -16,-7.2 -16,-16 V 256 c 0,-8.8 7.2,-16 16,-16 h 352 c 8.8,0 16,7.2 16,16 z"
         style="fill:#84bd5a"
         inkscape:connector-curvature="0" />
      <g
         id="g5236">
        <path
           id="path5230"
           d="m 144.336,326.192 22.256,-27.888 c 6.656,-8.704 19.584,2.416 12.288,10.736 -7.664,9.088 -15.728,18.944 -23.408,29.04 l 26.096,32.496 c 7.04,9.6 -7.024,18.8 -13.936,9.328 L 144.08,349.712 120.928,380.56 c -6.528,9.328 -20.992,-1.152 -13.696,-9.856 l 25.712,-32.624 c -8.064,-10.112 -15.872,-19.952 -23.664,-29.04 -8.048,-9.6 6.912,-19.44 12.8,-10.464 z"
           style="fill:#ffffff"
           inkscape:connector-curvature="0" />
        <path
           id="path5232"
           d="m 197.36,303.152 c 0,-4.224 3.584,-7.808 8.064,-7.808 4.096,0 7.552,3.6 7.552,7.808 v 64.096 h 34.8 c 12.528,0 12.8,16.752 0,16.752 H 205.44 c -4.48,0 -8.064,-3.184 -8.064,-7.792 v -73.056 z"
           style="fill:#ffffff"
           inkscape:connector-curvature="0" />
        <path
           id="path5234"
           d="m 272.032,314.672 c 2.944,-24.832 40.416,-29.296 58.08,-15.728 8.704,7.024 -0.512,18.16 -8.192,12.528 -9.472,-6 -30.96,-8.816 -33.648,4.464 -3.456,20.992 52.192,8.976 51.296,43.008 -0.896,32.496 -47.968,33.248 -65.632,18.672 -4.24,-3.456 -4.096,-9.072 -1.792,-12.544 3.328,-3.312 7.024,-4.464 11.392,-0.88 10.48,7.152 37.488,12.528 39.392,-5.648 -1.648,-18.912 -54.864,-7.536 -50.896,-43.872 z"
           style="fill:#ffffff"
           inkscape:connector-curvature="0" />
      </g>
      <path
         id="path5238"
         d="M 400,432 H 96 v 16 h 304 c 8.8,0 16,-7.2 16,-16 v -16 c 0,8.8 -7.2,16 -16,16 z"
         style="fill:#cad1d8"
         inkscape:connector-curvature="0" />
      <g
         id="g5240" />
      <g
         id="g5242" />
      <g
         id="g5244" />
      <g
         id="g5246" />
      <g
         id="g5248" />
      <g
         id="g5250" />
      <g
         id="g5252" />
      <g
         id="g5254" />
      <g
         id="g5256" />
      <g
         id="g5258" />
      <g
         id="g5260" />
      <g
         id="g5262" />
      <g
         id="g5264" />
      <g
         id="g5266" />
      <g
         id="g5268" />
    </g>
    <g
       id="g5625"
       transform="matrix(0.01332879,0,0,0.01332879,140.43074,51.34867)">
      <path
         id="path5546"
         d="M 128,0 C 110.4,0 96,14.4 96,32 v 448 c 0,17.6 14.4,32 32,32 h 320 c 17.6,0 32,-14.4 32,-32 V 128 L 352,0 Z"
         style="fill:#e2e5e7"
         inkscape:connector-curvature="0" />
      <path
         id="path5548"
         d="m 384,128 h 96 L 352,0 v 96 c 0,17.6 14.4,32 32,32 z"
         style="fill:#b0b7bd"
         inkscape:connector-curvature="0" />
      <polygon
         id="polygon5550"
         points="384,128 480,128 480,224 "
         style="fill:#cad1d8" />
      <path
         id="path5552"
         d="m 416,416 c 0,8.8 -7.2,16 -16,16 H 48 c -8.8,0 -16,-7.2 -16,-16 V 256 c 0,-8.8 7.2,-16 16,-16 h 352 c 8.8,0 16,7.2 16,16 z"
         style="fill:#84bd5a"
         inkscape:connector-curvature="0" />
      <g
         id="g5560">
        <path
           id="path5554"
           d="m 99.968,384 c -4.608,0 -7.808,-3.456 -7.808,-7.936 v -72.656 c 0,-4.608 3.2,-7.936 7.808,-7.936 h 35.952 c 16.768,0 25.84,11.392 25.84,24.432 0,5.744 -1.664,11.392 -7.024,16.128 10.096,3.968 14.576,11.76 14.576,21.232 -0.016,14.704 -10,26.736 -29.184,26.736 z m 35.936,-72.928 h -26.992 v 19.056 h 26.992 c 5.504,0 8.96,-3.456 8.96,-10.24 0,-4.208 -3.456,-8.816 -8.96,-8.816 z m -26.992,57.312 h 31.216 c 14.848,0 14.848,-22.64 0,-22.64 -9.712,0 -21.104,0 -31.216,0 z"
           style="fill:#ffffff"
           inkscape:connector-curvature="0" />
        <path
           id="path5556"
           d="m 201.456,327.84 v 47.328 c 0,5.648 -4.608,8.832 -9.2,8.832 -4.096,0 -7.68,-3.184 -7.68,-8.832 v -72.016 c 0,-6.656 5.648,-8.848 7.68,-8.848 3.696,0 5.872,2.192 8.048,4.624 l 28.16,37.984 29.152,-39.408 c 4.24,-5.232 14.592,-3.2 14.592,5.648 v 72.016 c 0,5.648 -3.584,8.832 -7.664,8.832 -4.608,0 -8.192,-3.184 -8.192,-8.832 V 327.84 l -21.248,26.864 c -4.592,5.648 -10.352,5.648 -14.576,0 z"
           style="fill:#ffffff"
           inkscape:connector-curvature="0" />
        <path
           id="path5558"
           d="m 290.176,303.152 c 0,-4.224 3.328,-8.848 8.704,-8.848 h 29.552 c 16.64,0 31.616,11.136 31.616,32.496 0,20.224 -14.976,31.472 -31.616,31.472 h -21.36 v 16.896 c 0,5.648 -3.584,8.832 -8.192,8.832 -4.224,0 -8.704,-3.184 -8.704,-8.832 z m 16.88,7.28 v 31.856 h 21.36 c 8.576,0 15.36,-7.552 15.36,-15.488 0,-8.96 -6.784,-16.368 -15.36,-16.368 z"
           style="fill:#ffffff"
           inkscape:connector-curvature="0" />
      </g>
      <path
         id="path5562"
         d="M 400,432 H 96 v 16 h 304 c 8.8,0 16,-7.2 16,-16 v -16 c 0,8.8 -7.2,16 -16,16 z"
         style="fill:#cad1d8"
         inkscape:connector-curvature="0" />
      <g
         id="g5564" />
      <g
         id="g5566" />
      <g
         id="g5568" />
      <g
         id="g5570" />
      <g
         id="g5572" />
      <g
         id="g5574" />
      <g
         id="g5576" />
      <g
         id="g5578" />
      <g
         id="g5580" />
      <g
         id="g5582" />
      <g
         id="g5584" />
      <g
         id="g5586" />
      <g
         id="g5588" />
      <g
         id="g5590" />
      <g
         id="g5592" />
    </g>
    <g
       id="g5706"
       transform="matrix(0.01332879,0,0,0.01332879,148.95513,62.858152)">
      <path
         id="path5627"
         d="M 128,0 C 110.4,0 96,14.4 96,32 v 448 c 0,17.6 14.4,32 32,32 h 320 c 17.6,0 32,-14.4 32,-32 V 128 L 352,0 Z"
         style="fill:#e2e5e7"
         inkscape:connector-curvature="0" />
      <path
         id="path5629"
         d="m 384,128 h 96 L 352,0 v 96 c 0,17.6 14.4,32 32,32 z"
         style="fill:#b0b7bd"
         inkscape:connector-curvature="0" />
      <polygon
         id="polygon5631"
         points="480,128 480,224 384,128 "
         style="fill:#cad1d8" />
      <path
         id="path5633"
         d="m 416,416 c 0,8.8 -7.2,16 -16,16 H 48 c -8.8,0 -16,-7.2 -16,-16 V 256 c 0,-8.8 7.2,-16 16,-16 h 352 c 8.8,0 16,7.2 16,16 z"
         style="fill:#a066aa"
         inkscape:connector-curvature="0" />
      <g
         id="g5641">
        <path
           id="path5635"
           d="m 199.84,374.16 c -9.088,7.536 -20.224,10.752 -31.472,10.752 -26.88,0 -45.936,-15.36 -45.936,-45.808 0,-25.84 20.096,-45.92 47.072,-45.92 10.112,0 21.232,3.456 29.168,11.264 7.808,7.664 -3.456,19.056 -11.12,12.288 -4.736,-4.624 -11.392,-8.064 -18.048,-8.064 -15.472,0 -30.432,12.4 -30.432,30.432 0,18.944 12.528,30.448 29.296,30.448 7.792,0 14.448,-2.304 19.184,-5.76 V 348.08 h -19.184 c -11.392,0 -10.24,-15.632 0,-15.632 h 25.584 c 4.736,0 9.072,3.6 9.072,7.568 v 27.248 c 0,2.288 -1.008,4.448 -3.184,6.896 z"
           style="fill:#ffffff"
           inkscape:connector-curvature="0" />
        <path
           id="path5637"
           d="m 224.944,303.152 c 0,-10.496 16.896,-10.88 16.896,0 v 73.024 c 0,10.624 -16.896,10.88 -16.896,0 z"
           style="fill:#ffffff"
           inkscape:connector-curvature="0" />
        <path
           id="path5639"
           d="m 281.12,312.096 v 20.336 h 32.608 c 4.608,0 9.216,4.608 9.216,9.088 0,4.224 -4.608,7.664 -9.216,7.664 H 281.12 v 26.864 c 0,4.48 -3.2,7.936 -7.68,7.936 -5.632,0 -9.072,-3.456 -9.072,-7.936 v -72.656 c 0,-4.608 3.456,-7.936 9.072,-7.936 h 44.912 c 5.632,0 8.96,3.328 8.96,7.936 0,4.096 -3.328,8.688 -8.96,8.688 H 281.12 Z"
           style="fill:#ffffff"
           inkscape:connector-curvature="0" />
      </g>
      <path
         id="path5643"
         d="M 400,432 H 96 v 16 h 304 c 8.8,0 16,-7.2 16,-16 v -16 c 0,8.8 -7.2,16 -16,16 z"
         style="fill:#cad1d8"
         inkscape:connector-curvature="0" />
      <g
         id="g5645" />
      <g
         id="g5647" />
      <g
         id="g5649" />
      <g
         id="g5651" />
      <g
         id="g5653" />
      <g
         id="g5655" />
      <g
         id="g5657" />
      <g
         id="g5659" />
      <g
         id="g5661" />
      <g
         id="g5663" />
      <g
         id="g5665" />
      <g
         id="g5667" />
      <g
         id="g5669" />
      <g
         id="g5671" />
      <g
         id="g5673" />
    </g>
    <g
       id="g5787"
       transform="matrix(0.01332879,0,0,0.01332879,90.556826,65.88983)">
      <path
         id="path5708"
         d="M 128,0 C 110.4,0 96,14.4 96,32 v 448 c 0,17.6 14.4,32 32,32 h 320 c 17.6,0 32,-14.4 32,-32 V 128 L 352,0 Z"
         style="fill:#e2e5e7"
         inkscape:connector-curvature="0" />
      <path
         id="path5710"
         d="m 384,128 h 96 L 352,0 v 96 c 0,17.6 14.4,32 32,32 z"
         style="fill:#b0b7bd"
         inkscape:connector-curvature="0" />
      <polygon
         id="polygon5712"
         points="480,128 480,224 384,128 "
         style="fill:#cad1d8" />
      <path
         id="path5714"
         d="m 416,416 c 0,8.8 -7.2,16 -16,16 H 48 c -8.8,0 -16,-7.2 -16,-16 V 256 c 0,-8.8 7.2,-16 16,-16 h 352 c 8.8,0 16,7.2 16,16 z"
         style="fill:#576d7e"
         inkscape:connector-curvature="0" />
      <g
         id="g5722">
        <path
           id="path5716"
           d="M 132.784,311.472 H 110.4 c -11.136,0 -11.136,-16.368 0,-16.368 h 60.512 c 11.392,0 11.392,16.368 0,16.368 h -21.248 v 64.592 c 0,11.12 -16.896,11.392 -16.896,0 v -64.592 z"
           style="fill:#ffffff"
           inkscape:connector-curvature="0" />
        <path
           id="path5718"
           d="m 224.416,326.176 22.272,-27.888 c 6.656,-8.688 19.568,2.432 12.288,10.752 -7.68,9.088 -15.728,18.944 -23.424,29.024 l 26.112,32.496 c 7.024,9.6 -7.04,18.816 -13.952,9.344 l -23.536,-30.192 -23.152,30.832 c -6.528,9.328 -20.992,-1.152 -13.68,-9.856 l 25.696,-32.624 c -8.048,-10.096 -15.856,-19.936 -23.664,-29.024 -8.064,-9.6 6.912,-19.44 12.784,-10.48 z"
           style="fill:#ffffff"
           inkscape:connector-curvature="0" />
        <path
           id="path5720"
           d="M 298.288,311.472 H 275.92 c -11.136,0 -11.136,-16.368 0,-16.368 h 60.496 c 11.392,0 11.392,16.368 0,16.368 h -21.232 v 64.592 c 0,11.12 -16.896,11.392 -16.896,0 z"
           style="fill:#ffffff"
           inkscape:connector-curvature="0" />
      </g>
      <path
         id="path5724"
         d="M 400,432 H 96 v 16 h 304 c 8.8,0 16,-7.2 16,-16 v -16 c 0,8.8 -7.2,16 -16,16 z"
         style="fill:#cad1d8"
         inkscape:connector-curvature="0" />
      <g
         id="g5726" />
      <g
         id="g5728" />
      <g
         id="g5730" />
      <g
         id="g5732" />
      <g
         id="g5734" />
      <g
         id="g5736" />
      <g
         id="g5738" />
      <g
         id="g5740" />
      <g
         id="g5742" />
      <g
         id="g5744" />
      <g
         id="g5746" />
      <g
         id="g5748" />
      <g
         id="g5750" />
      <g
         id="g5752" />
      <g
         id="g5754" />
    </g>
    <g
       id="g5868"
       transform="matrix(0.01332879,0,0,0.01332879,59.513211,74.535033)">
      <path
         id="path5789"
         d="M 128,0 C 110.4,0 96,14.4 96,32 v 448 c 0,17.6 14.4,32 32,32 h 320 c 17.6,0 32,-14.4 32,-32 V 128 L 352,0 Z"
         style="fill:#e2e5e7"
         inkscape:connector-curvature="0" />
      <path
         id="path5791"
         d="m 384,128 h 96 L 352,0 v 96 c 0,17.6 14.4,32 32,32 z"
         style="fill:#b0b7bd"
         inkscape:connector-curvature="0" />
      <polygon
         id="polygon5793"
         points="384,128 480,128 480,224 "
         style="fill:#cad1d8" />
      <path
         id="path5795"
         d="m 416,416 c 0,8.8 -7.2,16 -16,16 H 48 c -8.8,0 -16,-7.2 -16,-16 V 256 c 0,-8.8 7.2,-16 16,-16 h 352 c 8.8,0 16,7.2 16,16 z"
         style="fill:#f15642"
         inkscape:connector-curvature="0" />
      <g
         id="g5803">
        <path
           id="path5797"
           d="m 105.456,303.152 c 0,-4.224 3.328,-8.832 8.688,-8.832 h 29.552 c 16.64,0 31.616,11.136 31.616,32.48 0,20.224 -14.976,31.488 -31.616,31.488 h -21.36 v 16.896 c 0,5.632 -3.568,8.816 -8.176,8.816 -4.224,0 -8.688,-3.184 -8.688,-8.816 v -72.032 z m 16.88,7.28 v 31.872 h 21.36 c 8.576,0 15.36,-7.568 15.36,-15.504 0,-8.944 -6.784,-16.368 -15.36,-16.368 z"
           style="fill:#ffffff"
           inkscape:connector-curvature="0" />
        <path
           id="path5799"
           d="m 191.616,303.152 c 0,-4.224 3.328,-8.832 8.704,-8.832 h 29.552 c 16.64,0 31.616,11.136 31.616,32.48 0,20.224 -14.976,31.488 -31.616,31.488 h -21.36 v 16.896 c 0,5.632 -3.584,8.816 -8.192,8.816 -4.224,0 -8.704,-3.184 -8.704,-8.816 z m 16.88,7.28 v 31.872 h 21.36 c 8.576,0 15.36,-7.568 15.36,-15.504 0,-8.944 -6.784,-16.368 -15.36,-16.368 z"
           style="fill:#ffffff"
           inkscape:connector-curvature="0" />
        <path
           id="path5801"
           d="m 301.68,311.472 h -22.368 c -11.136,0 -11.136,-16.368 0,-16.368 h 60.496 c 11.392,0 11.392,16.368 0,16.368 h -21.232 v 64.608 c 0,11.12 -16.896,11.392 -16.896,0 z"
           style="fill:#ffffff"
           inkscape:connector-curvature="0" />
      </g>
      <path
         id="path5805"
         d="M 400,432 H 96 v 16 h 304 c 8.8,0 16,-7.2 16,-16 v -16 c 0,8.8 -7.2,16 -16,16 z"
         style="fill:#cad1d8"
         inkscape:connector-curvature="0" />
      <g
         id="g5807" />
      <g
         id="g5809" />
      <g
         id="g5811" />
      <g
         id="g5813" />
      <g
         id="g5815" />
      <g
         id="g5817" />
      <g
         id="g5819" />
      <g
         id="g5821" />
      <g
         id="g5823" />
      <g
         id="g5825" />
      <g
         id="g5827" />
      <g
         id="g5829" />
      <g
         id="g5831" />
      <g
         id="g5833" />
      <g
         id="g5835" />
    </g>
  </g>
</svg>
